<?xml version="1.0" encoding="UTF-8"?>
<svg xmlns="http://www.w3.org/2000/svg" style="display:none">
  <symbol id="rating-favorite" viewBox="0 0 24 24"><path fill="none" stroke="currentColor" stroke-width="2" stroke-linecap="round" stroke-linejoin="round" d="M7 10v12"/><path fill="none" stroke="currentColor" stroke-width="2" stroke-linecap="round" stroke-linejoin="round" d="M15 5.88 14 10h5.83a2 2 0 0 1 1.92 2.56l-2.33 8A2 2 0 0 1 17.5 22H7a2 2 0 0 1-2-2V10a2 2 0 0 1 2-2h2.76a2 2 0 0 0 1.79-1.11L15 2h0a3.13 3.13 0 0 1 3 3.88Z"/></symbol>
  <symbol id="rating-compromise" viewBox="0 0 24 24">
    <g transform="rotate(90 12 12)"><path fill="none" stroke="currentColor" stroke-width="2" stroke-linecap="round" stroke-linejoin="round" d="M7 10v12"/><path fill="none" stroke="currentColor" stroke-width="2" stroke-linecap="round" stroke-linejoin="round" d="M15 5.88 14 10h5.83a2 2 0 0 1 1.92 2.56l-2.33 8A2 2 0 0 1 17.5 22H7a2 2 0 0 1-2-2V10a2 2 0 0 1 2-2h2.76a2 2 0 0 0 1.79-1.11L15 2h0a3.13 3.13 0 0 1 3 3.88Z"/></g>
  </symbol>
  <symbol id="rating-dismissed" viewBox="0 0 24 24"><path fill="none" stroke="currentColor" stroke-width="2" stroke-linecap="round" stroke-linejoin="round" d="M17 14V2"/><path fill="none" stroke="currentColor" stroke-width="2" stroke-linecap="round" stroke-linejoin="round" d="M9 18.12 10 14H4.17a2 2 0 0 1-1.92-2.56l2.33-8A2 2 0 0 1 6.5 2H17a2 2 0 0 1 2 2v10a2 2 0 0 1-2 2h-2.76a2 2 0 0 0 -1.79 1.11L9 22h0a3.13 3.13 0 0 1-3-3.88Z"/></symbol>
</svg>
